<svg xmlns="http://www.w3.org/2000/svg" viewBox="0 0 320 380" role="img" aria-label="新規登録">
  <defs>
    <!-- 下だけ強い角丸のカード形状（上=24px, 下=48px相当） -->
    <path id="cardPath" d="
      M34,10 H286 Q310,10 310,34
      V326 Q310,370 266,370
      H54  Q10,370 10,326
      V34  Q10,10 34,10 Z"></path>
    <clipPath id="clipCard">
      <use href="#cardPath"></use>
    </clipPath>

    <linearGradient id="waveGrad" x1="0" y1="0" x2="1" y2="0">
      <stop offset="0" stop-color="#7fe3ff" stop-opacity=".25"></stop>
      <stop offset="1" stop-color="#b6a7ff" stop-opacity=".25"></stop>
    </linearGradient>
    <filter id="softGlow" x="-20%" y="-20%" width="140%" height="140%">
      <feGaussianBlur stdDeviation="3" result="b"></feGaussianBlur>
      <feMerge><feMergeNode in="b"></feMergeNode><feMergeNode in="SourceGraphic"></feMergeNode></feMerge>
    </filter>

    <style>
      .bg{ fill:#9db7c0; opacity:.85; }
      .avatarCircle{ fill:#e8eff2; opacity:.95; }
      .avatar{ fill:#fff; opacity:.98; }
      .horizon{ stroke:#abf5ff; stroke-width:2; opacity:.72; filter:url(#softGlow); }
      .wave{ fill:url(#waveGrad); }
      .label{
        fill:#fff;
        font:700 40px/1.1 "Zen Maru Gothic","M PLUS Rounded 1c",
              "Hiragino Maru Gothic ProN","Noto Sans JP","Yu Gothic UI",
              system-ui,sans-serif;
        letter-spacing:.06em;
      }
    </style>
  </defs>

  <!-- 背景カード -->
  <use href="#cardPath" class="bg"></use>

  <!-- クリップ内に horizon と wave を入れると端で丸く切れる -->
  <g clip-path="url(#clipCard)">
    <path class="horizon" d="M35,175 Q160,165 285,175" fill="none"></path>
    <!-- 波は左右に少しはみ出すくらい大きめに描いてOK（クリップで隠れる） -->
    <path class="wave" d="
      M-20,300
      C30,288 90,312 140,298
      S240,288 300,302
      S360,312 340,300
      L340,380 -20,380 Z"></path>
  </g>

  <!-- アバター -->
  <circle class="avatarCircle" cx="160" cy="145" r="78"></circle>
  <path class="avatar" d="M160 100 a30 30 0 1 1 0 60 a30 30 0 1 1 0 -60
                           M92 210 a68 45 0 0 1 136 0 v8 a4 4 0 0 1 -4 4 h-128 a4 4 0 0 1 -4 -4 z"></path>

  <!-- ラベル -->
  <text class="label" x="160" y="305" text-anchor="middle">新規登録</text>
</svg>
