<svg xmlns="http://www.w3.org/2000/svg" viewBox="0 0 256 256" width="512" height="512" role="img" aria-labelledby="title">
<title>Jellyfish Level 1</title>
<circle cx="128" cy="128" r="90" fill="#336699" stroke="#3b4b5c" stroke-width="8"/>
<ellipse cx="100" cy="88" rx="16" ry="10" fill="#ffffff" opacity="0.35"/>
<circle cx="78" cy="140" r="12" fill="#f8b4b4" opacity="0.9"/>
<circle cx="178" cy="140" r="12" fill="#f8b4b4" opacity="0.9"/>
<circle cx="98" cy="124" r="8" fill="#3b4b5c"/><circle cx="158" cy="124" r="8" fill="#3b4b5c"/>
<path d="M 102 142 Q 128 160 154 142" stroke="#3b4b5c" stroke-width="6" fill="none" stroke-linecap="round"/>
<path d="M 82 142 c -6,8 -6,16 2,20 8,4 14,-4 10,-12 -2,-4 -6,-6 -12,-8 z" fill="#a8d8ff" stroke="#3b4b5c" stroke-width="2"/>
<path d="M 172 142 c 6,8 6,16 -2,20 -8,4 -14,-4 -10,-12 2,-4 6,-6 12,-8 z" fill="#a8d8ff" stroke="#3b4b5c" stroke-width="2"/>
<rect x="77" y="173" rx="9" ry="9" width="18" height="54" fill="#336699" stroke="#3b4b5c" stroke-width="8"/>
<rect x="105" y="173" rx="9" ry="9" width="18" height="54" fill="#336699" stroke="#3b4b5c" stroke-width="8"/>
<rect x="133" y="173" rx="9" ry="9" width="18" height="54" fill="#336699" stroke="#3b4b5c" stroke-width="8"/>
<rect x="161" y="173" rx="9" ry="9" width="18" height="54" fill="#336699" stroke="#3b4b5c" stroke-width="8"/>
</svg>