<?xml version="1.0" encoding="UTF-8"?>
<svg width="420" height="96" viewBox="0 0 420 96" xmlns="http://www.w3.org/2000/svg" role="img" aria-label="SEA SIDE">
  <style>
    .title { font: 700 36px 'Inter', system-ui, -apple-system, 'Segoe UI', Roboto, sans-serif; letter-spacing: .18em; fill: #28607a; }
  </style>
  <g transform="translate(0,8)">
    <g transform="translate(0,0) scale(0.34)">
      <defs>
        <linearGradient id="g" x1="0" y1="0" x2="1" y2="1">
          <stop offset="0%" stop-color="#2BB7FF"/>
          <stop offset="60%" stop-color="#4EA1FF"/>
          <stop offset="100%" stop-color="#43E3A0"/>
        </linearGradient>
        <clipPath id="clip">
          <circle cx="128" cy="128" r="120"/>
        </clipPath>
      </defs>
      <circle cx="128" cy="128" r="120" fill="url(#g)"/>
      <g clip-path="url(#clip)">
        <path d="M-10 110 C 30 90, 70 140, 110 120 C 150 100, 190 150, 230 130 L 260 256 L -10 256 Z" fill="rgba(255,255,255,.18)"/>
        <path d="M-10 128 C 30 108, 70 158, 110 138 C 150 118, 190 168, 230 148 L 260 256 L -10 256 Z" fill="rgba(255,255,255,.28)"/>
        <path d="M-10 146 C 30 126, 70 176, 110 156 C 150 136, 190 186, 230 166" fill="none" stroke="rgba(255,255,255,.9)" stroke-width="10" stroke-linecap="round"/>
      </g>
    </g>
    <text x="120" y="52" class="title">SEA SIDE</text>
  </g>
</svg>
